<svg width="20" height="20" viewBox="0 0 20 20" fill="none" xmlns="http://www.w3.org/2000/svg">
<path d="M10 12.2917C9.65833 12.2917 9.375 12.0083 9.375 11.6667V7.5C9.375 7.15833 9.65833 6.875 10 6.875C10.3417 6.875 10.625 7.15833 10.625 7.5V11.6667C10.625 12.0083 10.3417 12.2917 10 12.2917Z" fill="white"/>
<path d="M10 14.9998C9.95002 14.9998 9.89169 14.9915 9.83335 14.9831C9.78335 14.9748 9.73335 14.9581 9.68335 14.9331C9.63335 14.9165 9.58335 14.8915 9.53335 14.8581C9.49169 14.8248 9.45002 14.7915 9.40835 14.7581C9.25835 14.5998 9.16669 14.3831 9.16669 14.1665C9.16669 13.9498 9.25835 13.7331 9.40835 13.5748C9.45002 13.5415 9.49169 13.5081 9.53335 13.4748C9.58335 13.4415 9.63335 13.4165 9.68335 13.3998C9.73335 13.3748 9.78335 13.3581 9.83335 13.3498C9.94169 13.3248 10.0584 13.3248 10.1584 13.3498C10.2167 13.3581 10.2667 13.3748 10.3167 13.3998C10.3667 13.4165 10.4167 13.4415 10.4667 13.4748C10.5084 13.5081 10.55 13.5415 10.5917 13.5748C10.7417 13.7331 10.8334 13.9498 10.8334 14.1665C10.8334 14.3831 10.7417 14.5998 10.5917 14.7581C10.55 14.7915 10.5084 14.8248 10.4667 14.8581C10.4167 14.8915 10.3667 14.9165 10.3167 14.9331C10.2667 14.9581 10.2167 14.9748 10.1584 14.9831C10.1084 14.9915 10.05 14.9998 10 14.9998Z" fill="white"/>
<path d="M15.05 18.4665H4.94998C3.32498 18.4665 2.08331 17.8749 1.44998 16.8082C0.82498 15.7415 0.908313 14.3665 1.69998 12.9415L6.74998 3.8582C7.58331 2.3582 8.73331 1.5332 9.99998 1.5332C11.2666 1.5332 12.4166 2.3582 13.25 3.8582L18.3 12.9499C19.0916 14.3749 19.1833 15.7415 18.55 16.8165C17.9166 17.8749 16.675 18.4665 15.05 18.4665ZM9.99998 2.7832C9.21665 2.7832 8.44998 3.3832 7.84165 4.46654L2.79998 13.5582C2.23331 14.5749 2.14165 15.5082 2.53331 16.1832C2.92498 16.8582 3.79165 17.2249 4.95831 17.2249H15.0583C16.225 17.2249 17.0833 16.8582 17.4833 16.1832C17.8833 15.5082 17.7833 14.5832 17.2166 13.5582L12.1583 4.46654C11.55 3.3832 10.7833 2.7832 9.99998 2.7832Z" fill="white"/>
</svg>
