<?xml version="1.0" encoding="UTF-8"?>
<svg width="25" height="24" viewBox="0 0 25 24" fill="none" xmlns="http://www.w3.org/2000/svg">
  <path
    d="M22.24 11.07C22.19 10.56 21.76 10.18 21.25 10.18H13.7C13.15 10.18 12.7 10.63 12.7 11.18V12.89C12.7 13.44 13.15 13.89 13.7 13.89H18.21C18.1 14.81 17.5 16.2 16.17 17.13C15.32 17.72 14.19 18.13 12.7 18.13C12.63 18.13 12.57 18.13 12.5 18.12C9.94995 18.04 7.78996 16.33 7.00996 13.98C6.79996 13.35 6.67995 12.69 6.67995 12C6.67995 11.31 6.79995 10.64 6.99995 10.02C7.05995 9.83999 7.12995 9.66001 7.20995 9.48001C8.12995 7.41001 10.14 5.95 12.5 5.88C12.56 5.87 12.63 5.87 12.7 5.87C14.13 5.87 15.2 6.33999 15.95 6.85999C16.34 7.12999 16.86 7.06999 17.2 6.73999L18.59 5.38C19.03 4.95 18.99 4.21999 18.49 3.85999C16.9 2.68999 14.96 2 12.7 2C12.63 2 12.57 2.00001 12.5 2.01001C8.66995 2.08001 5.37995 4.30001 3.76995 7.51001C3.08995 8.87001 2.69995 10.39 2.69995 12C2.69995 13.61 3.08995 15.13 3.76995 16.49H3.77995C5.38995 19.7 8.67995 21.92 12.5 21.99C12.57 22 12.63 22 12.7 22C15.4 22 17.67 21.11 19.32 19.58C21.21 17.83 22.3 15.27 22.3 12.22C22.3 11.79 22.28 11.42 22.24 11.07Z"
    fill="#21D4B4" />
</svg>
  